<svg width="15" height="14" viewBox="0 0 15 14" fill="none" xmlns="http://www.w3.org/2000/svg">
<path d="M13.9693 6.89986C13.9693 10.2642 11.2223 12.998 7.82729 12.998C4.43435 12.998 1.68729 10.2642 1.68729 6.89986C1.68729 3.53451 4.43435 0.801758 7.82729 0.801758C11.2233 0.801758 13.9693 3.53451 13.9693 6.89986Z" fill="white" stroke="#C071FF" stroke-width="0.8832"/>
<path d="M11.7304 2.09974L14.7983 2.09668L9.17338 11.8228L5.98177 11.8207L11.7304 2.09974Z" fill="#B4B4B4"/>
<path d="M0.356934 7.65089L1.72433 4.8742L5.23685 4.87012L6.81375 7.64476L0.356934 7.65089Z" fill="#7E20C8"/>
<path d="M0.358932 7.64885L1.72428 4.8742L5.23782 4.87012L6.81268 7.64272L0.358932 7.64885Z" fill="#878787"/>
<path d="M9.17347 11.8205L5.98186 11.8195L3.55059 7.64068L5.23685 4.87012" fill="#878787"/>
</svg>
