<svg width="20" height="19" viewBox="0 0 20 19" fill="none" xmlns="http://www.w3.org/2000/svg">
<path d="M4.03695 16.1087C2.69594 16.1087 1.36129 16.1087 0.0152061 16.1087C0.0152061 11.7035 0.0152061 7.30467 0.0152061 2.89444C1.35113 2.89444 2.6845 2.89444 4.03695 2.89444C4.03695 7.28953 4.03695 11.6846 4.03695 16.1087Z" fill="#A1AAAD"/>
<path d="M12.9967 4.94182C14.3327 4.65168 15.6343 4.37036 16.9651 4.07895C17.8371 8.01107 18.7014 11.9331 19.5759 15.8867C18.2514 16.1755 16.9473 16.4594 15.6101 16.7533C14.7381 12.8187 13.8725 8.89664 12.9967 4.94182Z" fill="#A1AAAD"/>
<path d="M8.11195 3.47592C8.11195 7.88614 8.11195 12.2774 8.11195 16.6826C7.15227 16.6826 6.20408 16.6826 5.2355 16.6826C5.2355 12.2888 5.2355 7.89119 5.2355 3.47592C6.18501 3.47592 7.13956 3.47592 8.11195 3.47592Z" fill="#A1AAAD"/>
<path d="M12.7527 7.49882C12.7527 10.3738 12.7527 13.2273 12.7527 16.101C11.6087 16.101 10.4622 16.101 9.3017 16.101C9.3017 13.2399 9.3017 10.3763 9.3017 7.49882C10.4495 7.49882 11.5884 7.49882 12.7527 7.49882Z" fill="#A1AAAD"/>
<path d="M4.05611 1.14576C2.69604 1.14576 1.36266 1.14576 0.00640503 1.14576C0.00640503 0.861925 -0.00885988 0.586916 0.0102065 0.31443C0.0241885 0.111328 0.19708 0.00157654 0.462739 0.00157654C1.30674 0.00031503 2.15328 0.000315723 2.99728 0.000315723C3.2032 0.000315723 3.40402 -0.000946476 3.60866 0.00157654C3.90991 0.00536106 4.04719 0.140343 4.05227 0.443104C4.05863 0.67396 4.05611 0.903554 4.05611 1.14576Z" fill="#A1AAAD"/>
<path d="M19.8227 17.0156C19.8849 17.2918 19.9498 17.5378 19.993 17.7863C20.0324 18.0109 19.904 18.1711 19.6473 18.2279C18.7715 18.4234 17.8944 18.6126 17.0186 18.8044C16.8496 18.841 16.6793 18.8813 16.5089 18.9141C16.2776 18.9621 16.092 18.8637 16.0323 18.6492C15.9649 18.4032 15.923 18.1522 15.8632 17.8784C17.1801 17.5895 18.488 17.3057 19.8227 17.0156Z" fill="#A1AAAD"/>
<path d="M16.7121 2.95474C15.3826 3.24363 14.081 3.52747 12.7501 3.81887C12.6891 3.5363 12.609 3.26255 12.5785 2.98502C12.5557 2.79453 12.6866 2.65324 12.876 2.61287C13.9513 2.37571 15.0267 2.14233 16.1033 1.914C16.3067 1.86858 16.4872 1.98086 16.538 2.17891C16.6067 2.42365 16.6511 2.67595 16.7121 2.95474Z" fill="#A1AAAD"/>
<path d="M0.00249746 17.8656C1.35748 17.8656 2.69085 17.8656 4.04456 17.8656C4.04456 18.152 4.06489 18.4333 4.03692 18.7121C4.0204 18.895 3.87171 18.9984 3.68486 18.9984C2.57647 19.0009 1.46804 19.0009 0.359643 18.9946C0.142286 18.9921 0.0126544 18.847 0.00629895 18.6338C-0.00514089 18.3866 0.00249746 18.1381 0.00249746 17.8656Z" fill="#A1AAAD"/>
<path d="M12.7605 5.75031C11.5962 5.75031 10.4573 5.75031 9.29931 5.75031C9.29931 5.4589 9.28022 5.17001 9.30691 4.88365C9.32217 4.71209 9.47599 4.61495 9.65013 4.61369C10.564 4.60864 11.4754 4.60612 12.3893 4.61243C12.6169 4.61495 12.7529 4.75876 12.7605 4.98331C12.7681 5.23057 12.7605 5.47656 12.7605 5.75031Z" fill="#A1AAAD"/>
<path d="M9.28537 17.8644C10.4497 17.8644 11.5886 17.8644 12.7478 17.8644C12.7478 18.1532 12.7695 18.4434 12.7415 18.7285C12.7237 18.8975 12.5775 18.9947 12.397 18.9972C11.4844 18.9997 10.5717 19.001 9.66036 18.9947C9.43411 18.9947 9.29809 18.8546 9.28665 18.6276C9.27521 18.3803 9.28537 18.1331 9.28537 17.8644Z" fill="#A1AAAD"/>
<path d="M5.22035 17.8644C6.19401 17.8644 7.14226 17.8644 8.11464 17.8644C8.11464 18.1419 8.13243 18.4169 8.10828 18.6881C8.09176 18.8673 7.96084 18.9909 7.7689 18.9934C7.03929 18.9997 6.30714 18.9997 5.57626 18.9934C5.36398 18.9909 5.22926 18.8408 5.22163 18.6301C5.21528 18.3828 5.22035 18.1356 5.22035 17.8644Z" fill="#A1AAAD"/>
<path d="M5.22292 2.28485C5.22292 2.01741 5.21273 1.76385 5.22544 1.51028C5.23307 1.30466 5.37924 1.16463 5.59279 1.16337C6.30714 1.15706 7.0253 1.15706 7.73966 1.16337C7.96337 1.16337 8.10828 1.30718 8.11845 1.52921C8.12989 1.77394 8.12101 2.01867 8.12101 2.28611C7.15752 2.28485 6.2042 2.28485 5.22292 2.28485Z" fill="#A1AAAD"/>
<path d="M4.04467 16.71C4.04467 16.8967 4.04467 17.0746 4.04467 17.2626C2.69604 17.2626 1.35884 17.2626 0.0114824 17.2626C0.0114824 17.0746 0.0114824 16.8993 0.0114824 16.71C1.35757 16.71 2.69604 16.71 4.04467 16.71Z" fill="#A1AAAD"/>
<path d="M4.04447 1.74874C4.04447 1.93166 4.04447 2.1007 4.04447 2.2874C2.70347 2.2874 1.37007 2.2874 0.0201714 2.2874C0.0201714 2.11458 0.0201714 1.94175 0.0201714 1.74874C1.35228 1.74874 2.68313 1.74874 4.04447 1.74874Z" fill="#A1AAAD"/>
<path d="M12.7504 6.35681C12.7504 6.53847 12.7504 6.71382 12.7504 6.90178C11.5937 6.90178 10.4484 6.90178 9.29301 6.90178C9.29301 6.7176 9.29301 6.5473 9.29301 6.35681C10.4446 6.35681 11.5911 6.35681 12.7504 6.35681Z" fill="#A1AAAD"/>
<path d="M9.29177 17.2575C9.29177 17.0695 9.29177 16.8967 9.29177 16.7113C10.4421 16.7113 11.5848 16.7113 12.7453 16.7113C12.7453 16.8853 12.7453 17.0607 12.7453 17.2575C11.6039 17.2575 10.4574 17.2575 9.29177 17.2575Z" fill="#A1AAAD"/>
</svg>
